<?xml version="1.0" encoding="iso-8859-1"?>
<!-- Generator: Adobe Illustrator 19.0.0, SVG Export Plug-In . SVG Version: 6.00 Build 0)  -->
<svg version="1.1" id="Capa_1" xmlns="http://www.w3.org/2000/svg" xmlns:xlink="http://www.w3.org/1999/xlink" x="0px" y="0px"
	 viewBox="0 0 512 512" style="enable-background:new 0 0 512 512;" xml:space="preserve">
<path style="fill:#E2EEFD;" d="M428.86,481.811l-38.841,22.04c-1.535,0.871-3.414,0.871-4.949,0l-38.906-22.077
	c-1.535-0.871-3.414-0.871-4.95,0l-38.9,22.077c-1.535,0.871-3.414,0.871-4.95,0l-38.901-22.077c-1.535-0.871-3.414-0.871-4.95,0
	l-38.899,22.077c-1.535,0.871-3.415,0.871-4.95,0l-38.898-22.076c-1.535-0.871-3.415-0.871-4.95,0l-38.893,22.076
	c-1.535,0.871-3.415,0.871-4.95,0l-38.831-22.04c-1.57-0.89-2.539-2.556-2.539-4.361V12.518c0-2.769,2.245-5.014,5.014-5.014h340.77
	c2.769,0,5.014,2.245,5.014,5.014v464.932C431.399,479.255,430.429,480.921,428.86,481.811z"/>
<path style="fill:#C7DCF2;" d="M431.399,12.522v464.932c0,1.805-0.972,3.469-2.537,4.352l-21.431,12.165V7.507h18.954
	C429.152,7.507,431.399,9.744,431.399,12.522z"/>
<path d="M426.385,0H305.139c-4.145,0-7.503,3.358-7.503,7.503s3.358,7.503,7.503,7.503h118.757v460.996l-36.352,20.628
	l-37.679-21.381c-3.809-2.161-8.542-2.16-12.356,0.001l-37.671,21.38l-37.674-21.381c-3.813-2.162-8.545-2.161-12.355,0.001
	l-37.671,21.379l-37.668-21.378c-3.812-2.162-8.547-2.164-12.359,0l-37.664,21.378l-36.344-20.627v-32.798
	c0-4.145-3.359-7.503-7.503-7.503s-7.503,3.358-7.503,7.503v34.246c0,4.495,2.429,8.667,6.339,10.887l38.833,22.039
	c3.813,2.163,8.548,2.163,12.358,0l37.664-21.378l37.669,21.378c1.906,1.081,4.044,1.623,6.18,1.623
	c2.136,0,4.273-0.541,6.178-1.623l37.671-21.379l37.675,21.381c3.812,2.162,8.545,2.162,12.356-0.001l37.671-21.38l37.679,21.381
	c3.81,2.16,8.543,2.162,12.354,0l38.843-22.042c3.909-2.22,6.338-6.391,6.338-10.886V12.518C438.902,5.615,433.287,0,426.385,0z"/>
<path d="M80.6,403.907c4.144,0,7.503-3.358,7.503-7.503V15.006h170.904c4.145,0,7.503-3.358,7.503-7.503S263.151,0,259.008,0H85.613
	c-6.901,0-12.516,5.615-12.516,12.518v383.886C73.097,400.548,76.456,403.907,80.6,403.907z"/>
<path d="M178.779,214.309h-24.737c-4.144,0-7.503,3.358-7.503,7.503c0,4.145,3.359,7.503,7.503,7.503h24.737
	c4.144,0,7.503-3.358,7.503-7.503C186.282,217.667,182.923,214.309,178.779,214.309z"/>
<path d="M357.956,214.309H214.882c-4.144,0-7.503,3.358-7.503,7.503c0,4.145,3.359,7.503,7.503,7.503h143.074
	c4.145,0,7.503-3.358,7.503-7.503C365.459,217.667,362.101,214.309,357.956,214.309z"/>
<path d="M178.779,256.581h-24.737c-4.144,0-7.503,3.358-7.503,7.503s3.359,7.503,7.503,7.503h24.737
	c4.144,0,7.503-3.358,7.503-7.503S182.923,256.581,178.779,256.581z"/>
<path d="M357.956,256.581H214.882c-4.144,0-7.503,3.358-7.503,7.503s3.359,7.503,7.503,7.503h143.074
	c4.145,0,7.503-3.358,7.503-7.503S362.101,256.581,357.956,256.581z"/>
<path d="M178.779,298.854h-24.737c-4.144,0-7.503,3.358-7.503,7.503s3.359,7.503,7.503,7.503h24.737
	c4.144,0,7.503-3.358,7.503-7.503S182.923,298.854,178.779,298.854z"/>
<path d="M357.956,298.854H214.882c-4.144,0-7.503,3.358-7.503,7.503s3.359,7.503,7.503,7.503h143.074
	c4.145,0,7.503-3.358,7.503-7.503S362.101,298.854,357.956,298.854z"/>
<path d="M178.779,341.127h-24.737c-4.144,0-7.503,3.358-7.503,7.503s3.359,7.503,7.503,7.503h24.737
	c4.144,0,7.503-3.358,7.503-7.503S182.923,341.127,178.779,341.127z"/>
<path d="M357.956,341.127H214.882c-4.144,0-7.503,3.358-7.503,7.503s3.359,7.503,7.503,7.503h143.074
	c4.145,0,7.503-3.358,7.503-7.503S362.101,341.127,357.956,341.127z"/>
<path d="M178.779,383.4h-24.737c-4.144,0-7.503,3.358-7.503,7.503s3.359,7.503,7.503,7.503h24.737c4.144,0,7.503-3.358,7.503-7.503
	S182.923,383.4,178.779,383.4z"/>
<path d="M357.956,383.4H214.882c-4.144,0-7.503,3.358-7.503,7.503s3.359,7.503,7.503,7.503h143.074c4.145,0,7.503-3.358,7.503-7.503
	S362.101,383.4,357.956,383.4z"/>
<path d="M348.012,102.258H246.555c-4.144,0-7.503,3.358-7.503,7.503s3.359,7.503,7.503,7.503h101.455
	c4.145,0,7.503-3.358,7.503-7.503S352.155,102.258,348.012,102.258z"/>
<path d="M322.104,150.396c4.145,0,7.503-3.358,7.503-7.503c0-4.145-3.358-7.503-7.503-7.503h-75.549
	c-4.144,0-7.503,3.358-7.503,7.503c0,4.145,3.359,7.503,7.503,7.503H322.104z"/>
<path d="M322.104,71.132h-75.549c-4.144,0-7.503,3.358-7.503,7.503s3.359,7.503,7.503,7.503h75.549c4.145,0,7.503-3.358,7.503-7.503
	S326.249,71.132,322.104,71.132z"/>
<path d="M198.563,155.789v-0.127c11.22-2.975,17.553-11.717,17.553-24.553c0-16.645-10.324-22.701-17.553-25.607V86.598
	c1.559,0.497,2.745,1.107,3.74,1.619c1.406,0.722,2.733,1.404,4.45,1.404c4.615,0,7.449-4.71,7.449-8.086
	c0-6.269-8.27-9.481-15.793-10.553c-0.689-3.103-3.605-5.513-6.975-5.513c-3.584,0-6.568,2.504-7.138,5.777
	c-12.011,2.239-19.034,10.292-19.034,22.202c0,15.24,10.177,20.193,18.936,23.27v24.351c-4.127-1.014-6.003-3.186-7.472-4.889
	c-1.268-1.468-3.003-3.478-5.929-3.478c-4.264,0-7.449,4.214-7.449,7.981c0,3.672,2.834,7.756,7.583,10.928
	c2.799,1.87,7.196,4.026,13.3,4.822c0.34,3.513,3.441,6.274,7.205,6.274C195.299,162.706,198.563,159.539,198.563,155.789z
	 M198.457,123.656c1.625,1.86,2.443,4.291,2.443,7.878c0,3.397-0.765,5.814-2.443,7.429V123.656z M184.41,99.993
	c-2.931-1.699-4.039-3.663-4.039-7.076c0-1.605,0-4.518,4.039-6.149V99.993z"/>
<g>
</g>
<g>
</g>
<g>
</g>
<g>
</g>
<g>
</g>
<g>
</g>
<g>
</g>
<g>
</g>
<g>
</g>
<g>
</g>
<g>
</g>
<g>
</g>
<g>
</g>
<g>
</g>
<g>
</g>
</svg>
